<svg height="469pt" viewBox="0 -5 469.33333 469" width="469pt" xmlns="http://www.w3.org/2000/svg"><path d="m389.332031 32.167969h-309.332031c-8.832031 0-16-7.167969-16-16s7.167969-16 16-16h309.332031c8.832031 0 16 7.167969 16 16s-7.167969 16-16 16zm0 0"/><path d="m453.332031 138.832031h-437.332031c-8.832031 0-16-7.167969-16-16s7.167969-16 16-16h437.332031c8.832031 0 16 7.167969 16 16s-7.167969 16-16 16zm0 0"/><path d="m389.332031 245.5h-309.332031c-8.832031 0-16-7.167969-16-16s7.167969-16 16-16h309.332031c8.832031 0 16 7.167969 16 16s-7.167969 16-16 16zm0 0"/><path d="m453.332031 352.167969h-437.332031c-8.832031 0-16-7.167969-16-16s7.167969-16 16-16h437.332031c8.832031 0 16 7.167969 16 16s-7.167969 16-16 16zm0 0"/><path d="m389.332031 458.832031h-309.332031c-8.832031 0-16-7.167969-16-16s7.167969-16 16-16h309.332031c8.832031 0 16 7.167969 16 16s-7.167969 16-16 16zm0 0"/></svg>