<?xml version="1.0" encoding="iso-8859-1"?>
<!-- Generator: Adobe Illustrator 19.0.0, SVG Export Plug-In . SVG Version: 6.00 Build 0)  -->
<svg version="1.1" id="Layer_1" xmlns="http://www.w3.org/2000/svg" xmlns:xlink="http://www.w3.org/1999/xlink" x="0px" y="0px"
	 viewBox="0 0 512 512" style="enable-background:new 0 0 512 512;" xml:space="preserve">
<g>
	<g>
		<g>
			<path d="M53.333,85.333H10.667C4.771,85.333,0,90.104,0,96v42.667c0,5.896,4.771,10.667,10.667,10.667h42.667
				c5.896,0,10.667-4.771,10.667-10.667V96C64,90.104,59.229,85.333,53.333,85.333z"/>
			<path d="M53.333,224H10.667C4.771,224,0,228.771,0,234.667v42.667C0,283.229,4.771,288,10.667,288h42.667
				C59.229,288,64,283.229,64,277.333v-42.667C64,228.771,59.229,224,53.333,224z"/>
			<path d="M53.333,362.667H10.667C4.771,362.667,0,367.438,0,373.333V416c0,5.896,4.771,10.667,10.667,10.667h42.667
				C59.229,426.667,64,421.896,64,416v-42.667C64,367.438,59.229,362.667,53.333,362.667z"/>
			<path d="M501.333,106.667h-384c-5.896,0-10.667,4.771-10.667,10.667v21.333c0,5.896,4.771,10.667,10.667,10.667h384
				c5.896,0,10.667-4.771,10.667-10.667v-21.333C512,111.438,507.229,106.667,501.333,106.667z"/>
			<path d="M501.333,234.667h-384c-5.896,0-10.667,4.771-10.667,10.667v21.333c0,5.896,4.771,10.667,10.667,10.667h384
				c5.896,0,10.667-4.771,10.667-10.667v-21.333C512,239.438,507.229,234.667,501.333,234.667z"/>
			<path d="M501.333,362.667h-384c-5.896,0-10.667,4.771-10.667,10.667v21.333c0,5.896,4.771,10.667,10.667,10.667h384
				c5.896,0,10.667-4.771,10.667-10.667v-21.333C512,367.438,507.229,362.667,501.333,362.667z"/>
		</g>
	</g>
</g>
<g>
</g>
<g>
</g>
<g>
</g>
<g>
</g>
<g>
</g>
<g>
</g>
<g>
</g>
<g>
</g>
<g>
</g>
<g>
</g>
<g>
</g>
<g>
</g>
<g>
</g>
<g>
</g>
<g>
</g>
</svg>
