<?xml version="1.0" encoding="utf-8"?>
<!-- Generator: Adobe Illustrator 22.0.1, SVG Export Plug-In . SVG Version: 6.00 Build 0)  -->
<svg version="1.1" id="Capa_1" xmlns="http://www.w3.org/2000/svg" xmlns:xlink="http://www.w3.org/1999/xlink" x="0px" y="0px"
	 viewBox="0 0 512 512" style="enable-background:new 0 0 512 512;" xml:space="preserve">
<style type="text/css">
	.st0{fill:#1E1E1E;}
	.st1{fill:#CAA554;}
</style>
<title>icone-warning</title>
<path class="st0" d="M501.7,372.2L322.9,62.6c-21.3-37-68.5-49.7-105.5-28.4c-11.8,6.8-21.6,16.6-28.4,28.4L10.3,372.2
	c-21.3,37-8.6,84.2,28.3,105.5c11.7,6.8,25,10.3,38.6,10.3h357.5c42.7,0,77.3-34.6,77.3-77.2C512,397.3,508.4,384,501.7,372.2
	L501.7,372.2z"/>
<path class="st1" d="M474.9,387.7L296.2,78.1c-8.1-13.9-22.8-22.7-38.9-23.2c-0.4,0-0.9,0-1.3,0c-16.6,0-31.9,8.9-40.2,23.2
	L37.1,387.7C24.3,409.9,32,438.2,54.1,451c7,4,15,6.2,23.1,6.2h357.5c25.6,0,46.3-20.7,46.4-46.3C481.1,402.7,479,394.7,474.9,387.7
	L474.9,387.7z"/>
<path class="st0" d="M281.8,379.9c0-14.2-11.5-25.8-25.8-25.8c-14.2,0-25.8,11.5-25.8,25.8c0,14.2,11.5,25.8,25.8,25.8c0,0,0,0,0,0
	l0,0C270.2,405.6,281.8,394.1,281.8,379.9z"/>
<path class="st0" d="M256,132.6c-14.2,0-25.8,11.5-25.8,25.7c0,0,0,0,0,0v139.1c0,14.2,11.5,25.8,25.8,25.8
	c14.2,0,25.8-11.5,25.8-25.8V158.4C281.8,144.2,270.2,132.6,256,132.6C256,132.6,256,132.6,256,132.6z"/>
</svg>
