<?xml version="1.0" encoding="utf-8"?>
<!-- Generator: Adobe Illustrator 22.0.1, SVG Export Plug-In . SVG Version: 6.00 Build 0)  -->
<svg version="1.1" id="Capa_1" xmlns="http://www.w3.org/2000/svg" xmlns:xlink="http://www.w3.org/1999/xlink" x="0px" y="0px"
	 viewBox="0 0 466.7 348" style="enable-background:new 0 0 466.7 348;" xml:space="preserve">
<style type="text/css">
	.st0{fill:#FFFFFF;}
</style>
<path class="st0" d="M455,20.4c-1.5-3.5-4-6.5-7.1-8.6c-3.1-2.1-6.9-3.3-10.9-3.3H314.5h-163H29c-2.7,0-5.3,0.6-7.6,1.5
	c-3.5,1.5-6.5,4-8.6,7.1C10.7,20.2,9.5,24,9.5,28v80.5v131V323c0,2.7,0.6,5.3,1.5,7.6c1.5,3.5,4,6.5,7.1,8.6
	c3.1,2.1,6.9,3.3,10.9,3.3h408c2.7,0,5.3-0.6,7.6-1.5c3.5-1.5,6.5-4,8.6-7.1c2.1-3.1,3.3-6.9,3.3-10.9v-83.5V232V108.5V28
	C456.5,25.3,455.9,22.7,455,20.4z M299.5,23.5v85h-133v-85H299.5z M299.5,224.5h-133v-101h133V224.5z M314.5,123.5h127l0,101h-127
	V123.5z M166.5,326.5v-87h133v87L166.5,326.5z M151.5,224.5h-127v-101h127V224.5z M24.5,28c0-0.6,0.1-1.2,0.3-1.7
	c0.3-0.8,0.9-1.5,1.7-2c0.7-0.5,1.6-0.8,2.5-0.8h122.5v85h-127V28z M27.3,327.2c-0.8-0.3-1.5-0.9-2-1.7c-0.5-0.7-0.8-1.6-0.8-2.5
	v-83.5h127v88H29C28.4,327.5,27.8,327.4,27.3,327.2z M441.5,323c0,0.6-0.1,1.2-0.3,1.7c-0.3,0.8-0.9,1.5-1.7,2
	c-0.7,0.5-1.6,0.8-2.5,0.8H314.5v-88h127V323z M314.5,108.5v-85H437c0.6,0,1.2,0.1,1.7,0.3c0.8,0.3,1.5,0.9,2,1.7
	c0.5,0.7,0.8,1.6,0.8,2.5v80.5H314.5z"/>
</svg>
