<?xml version="1.0" encoding="utf-8"?>
<!-- Generator: Adobe Illustrator 22.0.1, SVG Export Plug-In . SVG Version: 6.00 Build 0)  -->
<svg version="1.1" id="Camada_1" xmlns="http://www.w3.org/2000/svg" xmlns:xlink="http://www.w3.org/1999/xlink" x="0px" y="0px"
	 viewBox="0 0 469 469" style="enable-background:new 0 0 469 469;" xml:space="preserve">
<path d="M453,37.3H16c-8.8,0-16-7.2-16-16s7.2-16,16-16h437c8.8,0,16,7.2,16,16S461.8,37.3,453,37.3z"/>
<path d="M453,143.9H16c-8.8,0-16-7.2-16-16s7.2-16,16-16h437c8.8,0,16,7.2,16,16S461.8,143.9,453,143.9z"/>
<path d="M453,250.5H16c-8.8,0-16-7.2-16-16s7.2-16,16-16h437c8.8,0,16,7.2,16,16S461.8,250.5,453,250.5z"/>
<path d="M453,357.1H16c-8.8,0-16-7.2-16-16c0-8.8,7.2-16,16-16h437c8.8,0,16,7.2,16,16C469,349.9,461.8,357.1,453,357.1z"/>
<path d="M353.4,463.7H115.6c-8.8,0-16-7.2-16-16c0-8.8,7.2-16,16-16h237.8c8.8,0,16,7.2,16,16C369.4,456.5,362.2,463.7,353.4,463.7z
	"/>
</svg>
