<svg id="Camada_1" data-name="Camada 1" xmlns="http://www.w3.org/2000/svg" viewBox="0 0 37 21"><defs><style>.cls-1{fill:#fff;}</style></defs><title>img-texto</title><rect class="cls-1" x="0.5" y="0.5" width="10" height="20" rx="1.72" ry="1.72"/><path d="M8.66.94A1.22,1.22,0,0,1,9.88,2.16V18.72a1.22,1.22,0,0,1-1.22,1.22H2.09A1.22,1.22,0,0,1,.88,18.72V2.16A1.21,1.21,0,0,1,2.09.94H8.66m0-1H2.09A2.22,2.22,0,0,0-.13,2.16V18.72a2.23,2.23,0,0,0,2.22,2.22H8.66a2.23,2.23,0,0,0,2.22-2.22V2.16A2.22,2.22,0,0,0,8.66-.06Z" transform="translate(0.13 0.06)"/><rect x="16" y="3" width="21" height="1.44"/><rect x="16" y="5.89" width="21" height="1.44"/><rect x="16" y="8.78" width="15" height="1.44"/><rect x="16" y="13.67" width="21" height="1.44"/><rect x="16" y="16.56" width="15" height="1.44"/></svg>