<svg xmlns="http://www.w3.org/2000/svg" viewBox="0 0 241.71 34.7"><defs><style>.cls-1{fill:#fff;}</style></defs><title>Ativo 6</title><g id="Camada_2" data-name="Camada 2"><g id="Camada_1-2" data-name="Camada 1"><polygon class="cls-1" points="9.5 9.48 0 9.48 0 12.26 12.28 12.26 12.28 0 9.5 0 9.5 9.48"/><rect class="cls-1" x="13.81" y="18.12" width="2.77" height="2.78"/><rect class="cls-1" x="18.12" width="2.77" height="12.27"/><rect class="cls-1" x="13.81" y="22.42" width="2.77" height="12.27"/><rect class="cls-1" x="13.81" y="13.81" width="2.77" height="2.78"/><rect class="cls-1" y="13.81" width="12.28" height="2.78"/><polygon class="cls-1" points="0 25.21 9.5 25.21 9.5 34.7 12.28 34.7 12.28 22.42 0 22.42 0 25.21"/><rect class="cls-1" y="18.12" width="12.28" height="2.78"/><rect class="cls-1" x="13.81" width="2.77" height="12.27"/><rect class="cls-1" x="22.44" y="18.12" width="12.28" height="2.78"/><polygon class="cls-1" points="25.21 0 22.44 0 22.44 12.26 34.71 12.26 34.71 9.48 25.21 9.48 25.21 0"/><rect class="cls-1" x="22.44" y="13.81" width="12.28" height="2.78"/><rect class="cls-1" x="18.13" y="13.81" width="2.77" height="2.78"/><rect class="cls-1" x="18.13" y="18.12" width="2.77" height="2.78"/><rect class="cls-1" x="18.12" y="22.42" width="2.77" height="12.27"/><polygon class="cls-1" points="22.44 34.7 25.21 34.7 25.21 25.21 34.71 25.21 34.71 22.42 22.44 22.42 22.44 34.7"/><path class="cls-1" d="M55.32,9.93a1.28,1.28,0,0,1,.37-.33,1.44,1.44,0,0,1,.5-.07h3.19V25.17h-4V15.52h0L52,19.65H49.66a1.15,1.15,0,0,1-.41-.06.66.66,0,0,1-.29-.25l-3-3.82h0v9.65h-4V9.53H45.3a1.46,1.46,0,0,1,.51.07,1.27,1.27,0,0,1,.36.33l4.55,5.69h.07Z"/><path class="cls-1" d="M74.4,9.53V13h-8v2.57h7.24V19H66.45V21.7h8.16v3.47H62.25V9.53Z"/><path class="cls-1" d="M77.25,25.17V9.53H83a15.23,15.23,0,0,1,4.27.54,7.15,7.15,0,0,1,3.08,1.8,6.53,6.53,0,0,1,1.47,2.31,9.06,9.06,0,0,1,.52,3.18,9,9,0,0,1-.52,3.17,6.49,6.49,0,0,1-1.47,2.3,7.13,7.13,0,0,1-3.08,1.79,14.85,14.85,0,0,1-4.27.55Zm5.59-3.61a12,12,0,0,0,2.33-.19,3.36,3.36,0,0,0,1.61-.76,3.15,3.15,0,0,0,.85-1.26,5.63,5.63,0,0,0,.3-2,5.73,5.73,0,0,0-.3-2,3.23,3.23,0,0,0-.85-1.28,3.35,3.35,0,0,0-1.61-.75,12,12,0,0,0-2.33-.19H81.45v8.42Z"/><path class="cls-1" d="M106.42,15.31,104,13.82a5.18,5.18,0,0,0-1.18-.56,4.18,4.18,0,0,0-1.22-.17,3.2,3.2,0,0,0-1.34.29,3.08,3.08,0,0,0-1.09.82,4.09,4.09,0,0,0-.75,1.31,5.29,5.29,0,0,0-.27,1.76,4.31,4.31,0,0,0,1,3.1,4,4,0,0,0,3,1.09h0c.23,0,.48,0,.74,0l.77-.07a7,7,0,0,0,.71-.12l.61-.14c.09,0,.15-.07.17-.13a.4.4,0,0,0,0-.2V19.44h-2.17V16.72h5.54a1,1,0,0,1,.58.13.67.67,0,0,1,.15.51v7.81h-2.9l-.66-1.35-1.16.66a6.48,6.48,0,0,1-1.65.71,6.7,6.7,0,0,1-1.72.21,7.64,7.64,0,0,1-3.13-.62,7.18,7.18,0,0,1-2.37-1.7,7.41,7.41,0,0,1-1.51-2.55,9.13,9.13,0,0,1-.53-3.17A8.6,8.6,0,0,1,94.39,14a7.43,7.43,0,0,1,4.34-4.15,9,9,0,0,1,3.16-.55,8.53,8.53,0,0,1,2.34.31,8.2,8.2,0,0,1,2,.89,7,7,0,0,1,1.61,1.34,5.9,5.9,0,0,1,1,1.7Z"/><path class="cls-1" d="M116.32,25.17h-4.19V9.53H119a13.68,13.68,0,0,1,3.29.34A4.65,4.65,0,0,1,124.39,11a4.48,4.48,0,0,1,1,1.55,6,6,0,0,1,.35,2.1,5.48,5.48,0,0,1-.75,2.91,5.89,5.89,0,0,1-1.84,1.93l3.51,5.66h-4.17a.69.69,0,0,1-.71-.41l-2.38-4.05a1.26,1.26,0,0,0-.31-.4.94.94,0,0,0-.45-.07h-2.31Zm4-8.26a1.11,1.11,0,0,0,.49-.08.94.94,0,0,0,.36-.34,2.11,2.11,0,0,0,.27-.78,4.45,4.45,0,0,0,.09-.83,2.75,2.75,0,0,0-.13-.81,1.64,1.64,0,0,0-.32-.58,1.54,1.54,0,0,0-.76-.35,6.85,6.85,0,0,0-1.24-.09h-2.72v3.86Z"/><path class="cls-1" d="M143,18.42a9.14,9.14,0,0,1-.43,3,5.24,5.24,0,0,1-1.34,2.16,6.13,6.13,0,0,1-2.28,1.36,11,11,0,0,1-6.43,0,6.13,6.13,0,0,1-2.28-1.36,5.36,5.36,0,0,1-1.35-2.16,8.87,8.87,0,0,1-.44-3V9.53h4.2v9.2a2.48,2.48,0,0,0,.63,1.91,2.74,2.74,0,0,0,1,.52,5.55,5.55,0,0,0,1.46.19,5.23,5.23,0,0,0,1.44-.19,2.79,2.79,0,0,0,1-.52,2.48,2.48,0,0,0,.63-1.91V9.53H143Z"/><path class="cls-1" d="M149.81,20.57v4.6h-4.2V9.53h6.74a12,12,0,0,1,3.26.38,4.85,4.85,0,0,1,2.12,1.2A5.2,5.2,0,0,1,159.07,15a7.2,7.2,0,0,1-.36,2.37,4.62,4.62,0,0,1-1.05,1.7,4.78,4.78,0,0,1-1.9,1.16,9.28,9.28,0,0,1-2.89.38Zm3.86-3.37a1,1,0,0,0,.48-.09,1,1,0,0,0,.33-.34,2.43,2.43,0,0,0,.27-.84,6.88,6.88,0,0,0,.08-.95,3,3,0,0,0-.12-.85,1.28,1.28,0,0,0-1.1-1,7.36,7.36,0,0,0-1.3-.09h-2.5V17.2Z"/><path class="cls-1" d="M176.64,17.36a8.28,8.28,0,0,1-.65,3.33,7.6,7.6,0,0,1-4.3,4.15,8.94,8.94,0,0,1-6.23,0,7.7,7.7,0,0,1-2.55-1.62,7.59,7.59,0,0,1-1.75-2.53,8.28,8.28,0,0,1-.65-3.33,8.23,8.23,0,0,1,.65-3.32,7.63,7.63,0,0,1,1.75-2.54,7.89,7.89,0,0,1,2.55-1.63,8.8,8.8,0,0,1,6.23,0,7.94,7.94,0,0,1,2.56,1.63A7.76,7.76,0,0,1,176,14,8.23,8.23,0,0,1,176.64,17.36Zm-4.39,0a4.15,4.15,0,0,0-.95-2.91,4.06,4.06,0,0,0-5.45,0,4.2,4.2,0,0,0-.95,2.91,4.15,4.15,0,0,0,.95,2.9,4.09,4.09,0,0,0,5.45,0A4.11,4.11,0,0,0,172.25,17.36Z"/><path class="cls-1" d="M44.78,33.72H43.06l-.29.75,0,.06h-.69l1.46-3.75h.74a.09.09,0,0,1,0,.06l1.53,3.68h-.71l0-.06Zm-1.52-.55h1.3l-.31-.77L44,31.89c-.06-.16-.12-.31-.16-.43a4.2,4.2,0,0,1-.14.43c-.06.17-.13.33-.19.5Z"/><path class="cls-1" d="M55.09,30.79v3.75h-.65V31.87h0L53.37,33.2h-.5l0,0-1-1.28h0v2.67h-.65V30.79h.58l.06.06L53.1,32.5h0l1.31-1.64.05-.06h.6Z"/><path class="cls-1" d="M59.6,33.72H57.88l-.28.75a.09.09,0,0,1,0,.06h-.69l1.46-3.75h.75a.16.16,0,0,1,0,.06l1.54,3.68h-.71a.09.09,0,0,1,0-.06Zm-1.52-.55h1.3l-.3-.77a5.49,5.49,0,0,1-.21-.51c-.07-.16-.12-.31-.16-.43,0,.12-.09.27-.15.43s-.12.33-.19.5Z"/><path class="cls-1" d="M62.35,30.79H63v3.75h-.68Z"/><path class="cls-1" d="M66.79,34.6a1.86,1.86,0,0,1-.7-.14,1.79,1.79,0,0,1-.59-.39,1.9,1.9,0,0,1-.42-.61,2.21,2.21,0,0,1,0-1.6,1.9,1.9,0,0,1,.42-.61,1.93,1.93,0,0,1,.59-.38,1.86,1.86,0,0,1,.7-.14h0a1.9,1.9,0,0,1,.7.14,1.93,1.93,0,0,1,.59.38,1.87,1.87,0,0,1,.41.61,2.08,2.08,0,0,1,0,1.6,1.87,1.87,0,0,1-.41.61,1.79,1.79,0,0,1-.59.39,1.9,1.9,0,0,1-.7.14Zm-1.15-1.94a1.74,1.74,0,0,0,.07.53,1.2,1.2,0,0,0,.23.4,1,1,0,0,0,.37.26,1.21,1.21,0,0,0,.48.09h0a1.06,1.06,0,0,0,.84-.34,1.33,1.33,0,0,0,.31-.94,1.29,1.29,0,0,0-.31-.93,1.06,1.06,0,0,0-.84-.34h0a1.11,1.11,0,0,0-.85.33A1.38,1.38,0,0,0,65.64,32.66Z"/><path class="cls-1" d="M72.25,33.31a.25.25,0,0,0,0-.07h-1v1.31h-.68V30.79h1.41a3,3,0,0,1,.72.07,1.17,1.17,0,0,1,.51.29,1,1,0,0,1,.23.35,1.28,1.28,0,0,1,.09.5,1.26,1.26,0,0,1-.17.65,1.41,1.41,0,0,1-.46.45l.86,1.44h-.67l-.07,0s0,0-.06-.05Zm-1-.65h1.13l.17,0a.47.47,0,0,0,.12-.09.92.92,0,0,0,.16-.55.75.75,0,0,0,0-.28.77.77,0,0,0-.13-.2.57.57,0,0,0-.26-.12,2,2,0,0,0-.37,0h-.78Z"/><path class="cls-1" d="M81.67,30.79v.57H79.73v1h1.73v.57H79.73V34h2v.58H79.05V30.79Z"/><path class="cls-1" d="M87.69,30.79v3.75H87V31.87h0L86,33.2h-.5l0,0-1-1.28h0v2.67h-.64V30.79h.58l.06.06L85.7,32.5h0L87,30.86a.17.17,0,0,1,.06-.06h.6Z"/><path class="cls-1" d="M90.45,34.54h-.68V30.79h1.41a2.58,2.58,0,0,1,.74.09,1.16,1.16,0,0,1,.49.29,1.23,1.23,0,0,1,.23.37,1.59,1.59,0,0,1,.08.5,1.33,1.33,0,0,1-.1.54,1,1,0,0,1-.28.42,1.33,1.33,0,0,1-.38.23,1.64,1.64,0,0,1-.55.08h-1Zm1.13-1.81a.37.37,0,0,0,.17,0,.44.44,0,0,0,.11-.09.65.65,0,0,0,.12-.25A1.12,1.12,0,0,0,92,32a.9.9,0,0,0,0-.3.54.54,0,0,0-.13-.21.43.43,0,0,0-.25-.13,1.83,1.83,0,0,0-.35,0h-.79v1.36Z"/><path class="cls-1" d="M96.25,33.32a.25.25,0,0,0,0-.07h-1v1.31h-.68V30.8h1.41a3,3,0,0,1,.72.07,1.17,1.17,0,0,1,.51.29,1,1,0,0,1,.23.35,1.28,1.28,0,0,1,.09.5,1.23,1.23,0,0,1-.17.65,1.41,1.41,0,0,1-.46.45l.86,1.44H97l0-.06Zm-1-.65h1.13l.17,0a.31.31,0,0,0,.11-.09.86.86,0,0,0,.17-.55.61.61,0,0,0-.05-.28.56.56,0,0,0-.12-.2.57.57,0,0,0-.26-.12,2,2,0,0,0-.38,0h-.77Z"/><path class="cls-1" d="M102.13,30.8v.58H100.2v1h1.73v.57H100.2V34h2v.58H99.52V30.8Z"/><path class="cls-1" d="M104.12,33.83l.31.06c.19,0,.37.08.53.1l.44,0a.91.91,0,0,0,.56-.14.5.5,0,0,0,.2-.42.54.54,0,0,0,0-.19.49.49,0,0,0-.11-.14,1.6,1.6,0,0,0-.19-.11l-.29-.1-.42-.12a2.35,2.35,0,0,1-.81-.41.83.83,0,0,1-.27-.65.82.82,0,0,1,.1-.42.88.88,0,0,1,.29-.32,1.3,1.3,0,0,1,.43-.19,2,2,0,0,1,.56-.07,3.21,3.21,0,0,1,.6.06,4.24,4.24,0,0,1,.61.17l-.1.45-.25,0-.47-.05-.35,0a1.55,1.55,0,0,0-.6.1.31.31,0,0,0-.21.31.32.32,0,0,0,.16.28,1.69,1.69,0,0,0,.46.2l.33.09a3.74,3.74,0,0,1,.48.18,1.4,1.4,0,0,1,.38.22.9.9,0,0,1,.24.31,1,1,0,0,1,.09.44,1.11,1.11,0,0,1-.35.83,1.32,1.32,0,0,1-.44.24,1.8,1.8,0,0,1-.6.09,2.56,2.56,0,0,1-.39,0l-.39-.08-.36-.12a2.09,2.09,0,0,1-.3-.14Z"/><path class="cls-1" d="M111,33.74h-1.72l-.28.74a.15.15,0,0,1,0,.06h-.69l1.46-3.75h.75a.16.16,0,0,1,0,.06L112,34.55h-.72a.16.16,0,0,1,0-.06Zm-1.52-.56h1.3l-.31-.77c-.07-.17-.14-.34-.2-.51s-.12-.31-.16-.43c0,.12-.09.27-.15.43s-.12.33-.19.5Z"/><path class="cls-1" d="M120.76,32.66a2.23,2.23,0,0,1-.14.82,1.45,1.45,0,0,1-.39.57,1.68,1.68,0,0,1-.71.38,4,4,0,0,1-1,.11h-1.17V30.79h1.17a4.07,4.07,0,0,1,1,.11,1.68,1.68,0,0,1,.71.38,1.45,1.45,0,0,1,.39.57A2.21,2.21,0,0,1,120.76,32.66ZM118.5,34a3,3,0,0,0,.72-.07,1,1,0,0,0,.49-.23.92.92,0,0,0,.26-.39,1.72,1.72,0,0,0,.09-.6,1.7,1.7,0,0,0-.09-.59,1,1,0,0,0-.26-.39,1.11,1.11,0,0,0-.49-.23,3.65,3.65,0,0,0-.72-.07h-.45V34Z"/><path class="cls-1" d="M125.26,30.79v.58h-1.93v1h1.73v.57h-1.73V34h2v.58h-2.68V30.79Z"/><path class="cls-1" d="M133.52,30.79v.58h-1.94v1h1.73v.57h-1.73V34h2v.58H130.9V30.79Z"/><path class="cls-1" d="M138.2,30.79h.64v3.75h-.56l-.06-.05-1.45-1.82-.19-.24-.18-.23-.15-.2c0-.06-.08-.11-.1-.15h0v2.7h-.64V30.79h.56s0,0,.06.05l1.45,1.82.19.23.17.23.16.21.1.15h0Z"/><path class="cls-1" d="M140.87,33.82l.31.06a4.77,4.77,0,0,0,.53.1l.44,0a.92.92,0,0,0,.57-.14.5.5,0,0,0,.19-.42.58.58,0,0,0,0-.19.36.36,0,0,0-.11-.14,1.06,1.06,0,0,0-.19-.11l-.29-.1-.41-.12a2.18,2.18,0,0,1-.81-.41.79.79,0,0,1-.28-.65,1,1,0,0,1,.1-.42,1,1,0,0,1,.29-.31,1.37,1.37,0,0,1,.44-.2,2.36,2.36,0,0,1,.55-.07,3.21,3.21,0,0,1,.6.06,3.07,3.07,0,0,1,.61.18l-.1.44-.25,0-.46-.05h-.35a1.51,1.51,0,0,0-.6.09.32.32,0,0,0-.21.31.34.34,0,0,0,.15.29,2.25,2.25,0,0,0,.47.19l.32.1a4.65,4.65,0,0,1,.49.17,1.34,1.34,0,0,1,.37.22.87.87,0,0,1,.25.32,1.1,1.1,0,0,1,.08.43,1.14,1.14,0,0,1-.09.46.93.93,0,0,1-.26.37,1.27,1.27,0,0,1-.43.24,1.91,1.91,0,0,1-.61.09l-.38,0-.39-.08a1.9,1.9,0,0,1-.36-.12,3.24,3.24,0,0,1-.31-.13Z"/><path class="cls-1" d="M145.43,30.79h.68v3.75h-.68Z"/><path class="cls-1" d="M150.86,30.79h.64v3.75H151a.13.13,0,0,1-.06-.05l-1.46-1.82-.19-.24-.17-.23-.15-.2-.11-.15h0v2.7h-.64V30.79h.56s0,0,.06.05l1.46,1.82.18.23.18.23.15.21.11.15h0Z"/><path class="cls-1" d="M155.23,34.6a1.81,1.81,0,0,1-.69-.14,1.73,1.73,0,0,1-.6-.39,1.83,1.83,0,0,1-.41-.6,2.09,2.09,0,0,1-.16-.81,2,2,0,0,1,.16-.8,1.76,1.76,0,0,1,1-1,1.81,1.81,0,0,1,.69-.14h0a1.86,1.86,0,0,1,.7.14,1.81,1.81,0,0,1,.59.38,1.9,1.9,0,0,1,.42.61,2,2,0,0,1,.15.8,2.09,2.09,0,0,1-.15.81,1.85,1.85,0,0,1-.42.6,1.69,1.69,0,0,1-.59.39,1.86,1.86,0,0,1-.7.14Zm-1.15-1.94a1.69,1.69,0,0,0,.08.53,1.05,1.05,0,0,0,.23.4,1,1,0,0,0,.36.26,1.28,1.28,0,0,0,.48.09h0a1.09,1.09,0,0,0,.85-.34,1.57,1.57,0,0,0,0-1.87,1.09,1.09,0,0,0-.85-.34h0a1.06,1.06,0,0,0-.84.34A1.29,1.29,0,0,0,154.08,32.66Z"/><path class="cls-1" d="M166.55,30.79v3.75h-.65V31.87h0l-1.06,1.33h-.49l-.06,0-1-1.28h0v2.67h-.65V30.79h.59l0,.06,1.33,1.64h0l1.3-1.64,0-.06h.6Z"/><path class="cls-1" d="M171.25,30.79v.57h-1.94v1H171v.57h-1.73V34h2v.58h-2.68V30.79Zm-1.74-.33-.22-.3,1.05-.78a.1.1,0,0,1,.15,0l.27.39Z"/><path class="cls-1" d="M176.67,32.66a2.21,2.21,0,0,1-.14.81,1.49,1.49,0,0,1-.39.58,1.56,1.56,0,0,1-.71.37,3.5,3.5,0,0,1-1,.12h-1.17V30.79h1.17a3.62,3.62,0,0,1,1,.11,1.78,1.78,0,0,1,.71.37,1.56,1.56,0,0,1,.39.58A2.21,2.21,0,0,1,176.67,32.66Zm-2.26,1.28a3.73,3.73,0,0,0,.72-.06,1.11,1.11,0,0,0,.49-.23,1,1,0,0,0,.26-.39,2,2,0,0,0,0-1.2.89.89,0,0,0-.26-.38,1,1,0,0,0-.49-.24,3.73,3.73,0,0,0-.72-.06H174v2.56Z"/><path class="cls-1" d="M178.54,30.79h.68v3.75h-.68Z"/><path class="cls-1" d="M184.56,33.8a1.72,1.72,0,0,1-.34.32,2.57,2.57,0,0,1-.41.26,2.51,2.51,0,0,1-.46.16,1.93,1.93,0,0,1-.47.05h0a1.73,1.73,0,0,1-.73-.14,1.63,1.63,0,0,1-.56-.4,1.93,1.93,0,0,1-.37-.62,2.34,2.34,0,0,1-.13-.77,2,2,0,0,1,.54-1.41,1.69,1.69,0,0,1,1.26-.52,1.68,1.68,0,0,1,1,.29,1.8,1.8,0,0,1,.59.82l-.46.28-.4-.39a1.5,1.5,0,0,0-.35-.26.93.93,0,0,0-.42-.08,1.09,1.09,0,0,0-.4.07,1,1,0,0,0-.33.23,1.18,1.18,0,0,0-.22.4,1.94,1.94,0,0,0,0,1.1,1,1,0,0,0,.22.4.88.88,0,0,0,.36.26,1.28,1.28,0,0,0,.5.09,1.74,1.74,0,0,0,.39,0,2.41,2.41,0,0,0,.42-.16l.54-.28Z"/><path class="cls-1" d="M188,34.59a1.89,1.89,0,0,1-.7-.13,1.79,1.79,0,0,1-.59-.39,2.07,2.07,0,0,1-.42-.61,2.21,2.21,0,0,1,0-1.6,2.07,2.07,0,0,1,.42-.61,1.76,1.76,0,0,1,.59-.38,1.9,1.9,0,0,1,.7-.14h0a1.9,1.9,0,0,1,.7.14,1.76,1.76,0,0,1,.59.38,1.87,1.87,0,0,1,.41.61,2.08,2.08,0,0,1,0,1.6,1.87,1.87,0,0,1-.41.61,1.79,1.79,0,0,1-.59.39,1.89,1.89,0,0,1-.7.13Zm-1.15-1.93a1.74,1.74,0,0,0,.07.53,1.2,1.2,0,0,0,.23.4,1.08,1.08,0,0,0,.37.26,1.21,1.21,0,0,0,.48.09h0a1.05,1.05,0,0,0,.84-.34,1.33,1.33,0,0,0,.31-.94,1.29,1.29,0,0,0-.31-.93,1.05,1.05,0,0,0-.84-.34h0a1.11,1.11,0,0,0-.85.33A1.38,1.38,0,0,0,186.82,32.66Z"/><path class="cls-1" d="M198.73,32.66a2.27,2.27,0,0,1-.14.82,1.45,1.45,0,0,1-.39.57,1.74,1.74,0,0,1-.71.38,4,4,0,0,1-1,.11h-1.17V30.79h1.17a4.07,4.07,0,0,1,1,.11,1.74,1.74,0,0,1,.71.38,1.45,1.45,0,0,1,.39.57A2.21,2.21,0,0,1,198.73,32.66ZM196.47,34a2.88,2.88,0,0,0,.71-.07,1.15,1.15,0,0,0,.5-.23,1,1,0,0,0,.26-.39,2,2,0,0,0,0-1.2,1,1,0,0,0-.26-.38,1.05,1.05,0,0,0-.5-.23,2.88,2.88,0,0,0-.71-.07H196V34Z"/><path class="cls-1" d="M202.25,34.6a1.82,1.82,0,0,1-.7-.14,1.73,1.73,0,0,1-.6-.39,1.83,1.83,0,0,1-.41-.6,2.09,2.09,0,0,1-.16-.81,2,2,0,0,1,.16-.8,1.76,1.76,0,0,1,1-1,1.82,1.82,0,0,1,.7-.14h0a1.86,1.86,0,0,1,.7.14,2,2,0,0,1,.6.38,1.92,1.92,0,0,1,.56,1.41,2.09,2.09,0,0,1-.15.81,2,2,0,0,1-.41.6,1.83,1.83,0,0,1-.6.39,1.86,1.86,0,0,1-.7.14Zm-1.16-1.94a1.74,1.74,0,0,0,.08.53,1.05,1.05,0,0,0,.23.4,1,1,0,0,0,.36.26,1.3,1.3,0,0,0,.49.09h0a1.09,1.09,0,0,0,.85-.34,1.38,1.38,0,0,0,.31-.94,1.35,1.35,0,0,0-.31-.93,1.09,1.09,0,0,0-.85-.34h0a1.09,1.09,0,0,0-.85.34A1.29,1.29,0,0,0,201.09,32.66Z"/><path class="cls-1" d="M210.29,34.54h-.67V30.79H211a2.5,2.5,0,0,1,.73.09,1.14,1.14,0,0,1,.49.29,1,1,0,0,1,.23.38,1.29,1.29,0,0,1,.08.49,1.59,1.59,0,0,1-.09.55,1.22,1.22,0,0,1-.29.42,1.25,1.25,0,0,1-.37.22,1.68,1.68,0,0,1-.55.08h-1Zm1.14-1.8a.4.4,0,0,0,.17,0,.31.31,0,0,0,.1-.1.67.67,0,0,0,.12-.24,1.19,1.19,0,0,0,.05-.32,1,1,0,0,0-.05-.31,1.07,1.07,0,0,0-.13-.21.53.53,0,0,0-.25-.12,1.83,1.83,0,0,0-.35,0h-.8v1.36Z"/><path class="cls-1" d="M215,34h1.86v.57h-2.54V30.79H215Z"/><path class="cls-1" d="M221.21,33.73h-1.72l-.28.75s0,.05,0,.05h-.69L220,30.79h.74a.15.15,0,0,1,0,.06l1.53,3.68h-.71s0,0,0-.05Zm-1.51-.56H221l-.3-.76q-.1-.27-.21-.51c-.06-.17-.12-.31-.16-.43l-.15.43-.18.49Z"/><path class="cls-1" d="M226.66,30.79h.64v3.75h-.56l-.06-.05-1.45-1.81-.19-.24-.17-.24-.15-.2a.92.92,0,0,1-.11-.15h0v2.7H224V30.79h.56a.11.11,0,0,1,.06.06L226,32.67l.19.23.18.24.15.2.11.16h0Z"/><path class="cls-1" d="M232,30.79v.58h-1.93v1h1.73v.57h-1.73V34h2v.57h-2.68V30.79Z"/><path class="cls-1" d="M235.66,34.54H235V31.37h-1.25v-.58h3.18v.58h-1.25Z"/><path class="cls-1" d="M240.66,33.73h-1.72l-.28.75s0,.05,0,.05h-.69l1.46-3.75h.75a.16.16,0,0,1,0,.06l1.54,3.68H241s0,0,0-.05Zm-1.51-.56h1.29l-.3-.76q-.12-.27-.21-.51c-.07-.17-.12-.31-.16-.43l-.15.43c-.06.16-.12.33-.19.49Z"/></g></g></svg>