<svg xmlns="http://www.w3.org/2000/svg" viewBox="0 0 87 87"><defs><style>.cls-1{fill:#fff;}</style></defs><title>Ativo 10</title><g id="Camada_2" data-name="Camada 2"><g id="Camada_1-2" data-name="Camada 1"><polygon class="cls-1" points="29.34 29.32 12.21 29.32 12.21 34.33 34.34 34.33 34.34 12.22 29.34 12.22 29.34 29.32"/><rect class="cls-1" x="37.1" y="44.88" width="5" height="5.01"/><rect class="cls-1" x="44.87" y="12.22" width="5" height="22.12"/><rect class="cls-1" x="37.1" y="52.65" width="5" height="22.13"/><rect class="cls-1" x="37.1" y="37.12" width="5" height="5.01"/><rect class="cls-1" x="12.2" y="37.12" width="22.13" height="5.01"/><polygon class="cls-1" points="12.21 57.68 29.34 57.68 29.34 74.78 34.34 74.78 34.34 52.65 12.21 52.65 12.21 57.68"/><rect class="cls-1" x="12.2" y="44.88" width="22.13" height="5.01"/><rect class="cls-1" x="37.1" y="12.22" width="5" height="22.12"/><rect class="cls-1" x="52.66" y="44.88" width="22.13" height="5.01"/><polygon class="cls-1" points="57.67 12.22 52.66 12.22 52.66 34.33 74.8 34.33 74.8 29.32 57.67 29.32 57.67 12.22"/><rect class="cls-1" x="52.66" y="37.12" width="22.13" height="5.01"/><rect class="cls-1" x="44.9" y="37.12" width="5" height="5.01"/><rect class="cls-1" x="44.9" y="44.88" width="5" height="5.01"/><rect class="cls-1" x="44.87" y="52.65" width="5" height="22.13"/><polygon class="cls-1" points="52.66 74.78 57.67 74.78 57.67 57.68 74.8 57.68 74.8 52.65 52.66 52.65 52.66 74.78"/><path class="cls-1" d="M43.5,87A43.5,43.5,0,1,1,87,43.5,43.54,43.54,0,0,1,43.5,87Zm0-82.26A38.77,38.77,0,1,0,82.27,43.5,38.81,38.81,0,0,0,43.5,4.74Z"/></g></g></svg>