<svg xmlns="http://www.w3.org/2000/svg" viewBox="0 0 203.94 40.06"><defs><style>.cls-1{fill:#fff;}</style></defs><title>Ativo 3</title><g id="Camada_2" data-name="Camada 2"><g id="Camada_1-2" data-name="Camada 1"><polygon class="cls-1" points="10.97 10.95 0 10.95 0 14.15 14.17 14.15 14.17 0 10.97 0 10.97 10.95"/><rect class="cls-1" x="15.94" y="20.91" width="3.2" height="3.21"/><rect class="cls-1" x="20.91" width="3.2" height="14.17"/><rect class="cls-1" x="15.94" y="25.89" width="3.2" height="14.17"/><rect class="cls-1" x="15.94" y="15.94" width="3.2" height="3.21"/><rect class="cls-1" y="15.94" width="14.17" height="3.21"/><polygon class="cls-1" points="0 29.11 10.97 29.11 10.97 40.06 14.17 40.06 14.17 25.89 0 25.89 0 29.11"/><rect class="cls-1" y="20.91" width="14.17" height="3.21"/><rect class="cls-1" x="15.94" width="3.2" height="14.17"/><rect class="cls-1" x="25.91" y="20.91" width="14.17" height="3.21"/><polygon class="cls-1" points="29.11 0 25.91 0 25.91 14.15 40.08 14.15 40.08 10.95 29.11 10.95 29.11 0"/><rect class="cls-1" x="25.91" y="15.94" width="14.17" height="3.21"/><rect class="cls-1" x="20.93" y="15.94" width="3.2" height="3.21"/><rect class="cls-1" x="20.93" y="20.91" width="3.2" height="3.21"/><rect class="cls-1" x="20.91" y="25.89" width="3.2" height="14.17"/><polygon class="cls-1" points="25.91 40.06 29.11 40.06 29.11 29.11 40.08 29.11 40.08 25.89 25.91 25.89 25.91 40.06"/><path class="cls-1" d="M63.87,11.47a1,1,0,0,1,1-.46h3.67v18H63.9V17.92h0L60,22.68H57.34a1.56,1.56,0,0,1-.48-.06.81.81,0,0,1-.34-.29L53,17.92h0V29.05H48.38V11H52.3a1.45,1.45,0,0,1,.59.08,1.35,1.35,0,0,1,.42.38L58.56,18h.08Z"/><path class="cls-1" d="M85.9,11v4H76.72v3h8.36v3.92H76.72v3.16h9.42v4H71.88V11Z"/><path class="cls-1" d="M89.19,29.05V11h6.59a17.43,17.43,0,0,1,4.93.62,8.28,8.28,0,0,1,3.56,2.07A7.48,7.48,0,0,1,106,16.37a10.31,10.31,0,0,1,.6,3.67,10.27,10.27,0,0,1-.6,3.67,7.48,7.48,0,0,1-1.69,2.65,8.28,8.28,0,0,1-3.56,2.07,17.43,17.43,0,0,1-4.93.62Zm6.45-4.16a14,14,0,0,0,2.7-.22,3.75,3.75,0,0,0,1.85-.87,3.62,3.62,0,0,0,1-1.46,6.51,6.51,0,0,0,.35-2.3,6.69,6.69,0,0,0-.35-2.31,3.59,3.59,0,0,0-1-1.47,3.75,3.75,0,0,0-1.85-.87,14,14,0,0,0-2.7-.22H94v9.72Z"/><path class="cls-1" d="M122.87,17.68,120.06,16a5.36,5.36,0,0,0-1.36-.65,4.76,4.76,0,0,0-1.41-.19,3.63,3.63,0,0,0-1.54.32,3.69,3.69,0,0,0-1.27,1,4.62,4.62,0,0,0-.86,1.51,6,6,0,0,0-.31,2,4.94,4.94,0,0,0,1.21,3.58A4.57,4.57,0,0,0,118,24.78h.06l.85,0a8.65,8.65,0,0,0,.89-.08c.29,0,.57-.08.83-.13s.49-.11.69-.17a.29.29,0,0,0,.21-.15.53.53,0,0,0,0-.23V22.44h-2.51V19.31h6.4a1.08,1.08,0,0,1,.67.15.73.73,0,0,1,.18.58v9H123l-.76-1.55-1.34.77a7.64,7.64,0,0,1-1.9.81,7.48,7.48,0,0,1-2,.25,8.76,8.76,0,0,1-3.62-.72,8.41,8.41,0,0,1-2.74-2,8.82,8.82,0,0,1-1.74-2.94,10.75,10.75,0,0,1-.61-3.67,9.87,9.87,0,0,1,.73-3.88,8.62,8.62,0,0,1,2-2.94,8.91,8.91,0,0,1,3-1.85,10.49,10.49,0,0,1,3.65-.64,9.87,9.87,0,0,1,2.69.37,9.77,9.77,0,0,1,2.35,1,8.42,8.42,0,0,1,1.85,1.55,6.65,6.65,0,0,1,1.19,2Z"/><path class="cls-1" d="M134.3,29.05h-4.85V11h7.9a15.57,15.57,0,0,1,3.8.39,5.36,5.36,0,0,1,2.46,1.32,5,5,0,0,1,1.14,1.8,6.5,6.5,0,0,1,.41,2.42,6.32,6.32,0,0,1-.87,3.36,6.66,6.66,0,0,1-2.12,2.22l4.05,6.53h-4.81a1,1,0,0,1-.48-.08,1.09,1.09,0,0,1-.34-.38l-2.75-4.68a1.44,1.44,0,0,0-.35-.46,1.07,1.07,0,0,0-.52-.09H134.3Zm4.57-9.52a1.37,1.37,0,0,0,.56-.1,1.07,1.07,0,0,0,.42-.39,2.64,2.64,0,0,0,.32-.9,5.9,5.9,0,0,0,.09-.95,2.94,2.94,0,0,0-.15-.94,1.61,1.61,0,0,0-.37-.67,1.69,1.69,0,0,0-.87-.41,7.79,7.79,0,0,0-1.44-.11H134.3v4.47Z"/><path class="cls-1" d="M165.06,21.27a10.73,10.73,0,0,1-.49,3.44A6.08,6.08,0,0,1,163,27.2a6.86,6.86,0,0,1-2.63,1.57,12.6,12.6,0,0,1-7.43,0,6.94,6.94,0,0,1-2.63-1.57,6.43,6.43,0,0,1-1.56-2.49,10.44,10.44,0,0,1-.5-3.44V11h4.84V21.62a2.84,2.84,0,0,0,.74,2.21,3.23,3.23,0,0,0,1.19.6,6.41,6.41,0,0,0,1.69.21,6,6,0,0,0,1.66-.21,3.21,3.21,0,0,0,1.17-.6,2.84,2.84,0,0,0,.74-2.21V11h4.76Z"/><path class="cls-1" d="M173,23.75v5.3h-4.85V11h7.79a13.66,13.66,0,0,1,3.75.43,5.51,5.51,0,0,1,2.45,1.39,6,6,0,0,1,1.56,4.44,7.9,7.9,0,0,1-.43,2.73A5.21,5.21,0,0,1,182,22a5.55,5.55,0,0,1-2.19,1.33,10.61,10.61,0,0,1-3.33.44Zm4.46-3.9a1.34,1.34,0,0,0,.55-.09,1.23,1.23,0,0,0,.38-.4,2.64,2.64,0,0,0,.31-1,7.86,7.86,0,0,0,.1-1.11,3.52,3.52,0,0,0-.14-1,1.66,1.66,0,0,0-.38-.7,1.63,1.63,0,0,0-.89-.44,8.41,8.41,0,0,0-1.51-.11H173v4.79Z"/><path class="cls-1" d="M203.94,20a9.46,9.46,0,0,1-.75,3.84,9,9,0,0,1-2,2.93,8.74,8.74,0,0,1-3,1.86,10.12,10.12,0,0,1-7.19,0,8.7,8.7,0,0,1-2.95-1.86,8.84,8.84,0,0,1-2-2.93,9.46,9.46,0,0,1-.75-3.84,9.45,9.45,0,0,1,.75-3.83,8.83,8.83,0,0,1,5-4.81,10,10,0,0,1,7.19,0,8.8,8.8,0,0,1,5,4.81A9.45,9.45,0,0,1,203.94,20Zm-5.07,0a4.79,4.79,0,0,0-1.1-3.36,4.69,4.69,0,0,0-6.29,0,4.84,4.84,0,0,0-1.1,3.36,4.78,4.78,0,0,0,1.1,3.35,4.72,4.72,0,0,0,6.29,0A4.73,4.73,0,0,0,198.87,20Z"/></g></g></svg>