<svg xmlns="http://www.w3.org/2000/svg" viewBox="0 0 449.65 185.34"><defs><style>.cls-1{fill:#fff;}</style></defs><title>med-negativo-simples</title><g id="Camada_2" data-name="Camada 2"><g id="Camada_1-2" data-name="Camada 1"><path class="cls-1" d="M440.75,69.7c-6.29-5.56-15.28-7.78-27.23-7.78H391.75v61.41h21.77c12,0,20.94-2.22,27.23-7.78,5.66-5,8.9-12.69,8.9-22.88S446.41,74.7,440.75,69.7Zm-10.46,36.5c-3.43,3.43-9.17,4.63-17.32,4.63h-6.76V74.42H413c8.15,0,13.89,1.21,17.32,4.64,2.87,2.87,4.35,7.13,4.35,13.61S433.16,103.32,430.29,106.2Zm-52,3.15H367.21v14h14.26V112.21C381.47,110.18,380.73,109.35,378.32,109.35ZM92.67,0a92.67,92.67,0,1,0,92.67,92.67A92.67,92.67,0,0,0,92.67,0ZM81,89.77V81.05h8.73v8.72Zm8.73,5.8v8.71H81V95.57ZM81,75.24V34.59h8.73V75.24ZM11.12,92.67A81.56,81.56,0,0,1,81.06,12v9.73A72,72,0,0,0,21.73,81H75.2v8.74H20.87c0,1-.13,1.92-.13,2.89s0,2,.08,2.91H11.19C11.16,94.61,11.12,93.65,11.12,92.67Zm64.08,2.9v8.71H34.45V95.57Zm20.37,78.57c-1,0-1.92.08-2.9.08A81.55,81.55,0,0,1,12,104.32h9.73A72,72,0,0,0,81,163.61V110.1h8.73v54.37c1,0,1.93.13,2.91.13s1.94,0,2.9-.08Zm8.76-78.57v8.71H95.59V95.57Zm-8.74-5.8V81.05h8.74v8.72Zm8.72,20.33v40.65H95.58V110.1Zm69.91-17.43a81.57,81.57,0,0,1-69.93,80.72v-9.74a71.94,71.94,0,0,0,59.32-59.36H110.14V95.56h54.33c0-1,.12-1.91.12-2.89s0-1.94-.07-2.91h9.63C174.18,90.73,174.22,91.7,174.22,92.67Zm-64.08-2.9V81.05h40.75v8.72ZM163.65,81a72,72,0,0,0-59.34-59.3V75.24H95.58V20.88c-1,0-1.93-.14-2.91-.14s-1.94,0-2.9.08V11.2c1,0,1.93-.08,2.9-.08A81.56,81.56,0,0,1,173.38,81ZM267.71,63.4l-19,24h-.19l-19.17-24a2.94,2.94,0,0,0-3-1.48H214.63v61.41h13.9V83.13l13.89,17.6a2.51,2.51,0,0,0,2.5,1.12h8.15L268,83.13v40.2h14V61.92h-11.3A2.86,2.86,0,0,0,267.71,63.4Zm32.42,45.95H289v14h14.26V112.21C303.28,110.18,302.54,109.35,300.13,109.35ZM328,98.05h28.44V86.19H328V74h31.22v-12H313.57v61.41h46.59v-12H328Z"/></g></g></svg>