<svg xmlns="http://www.w3.org/2000/svg" viewBox="0 0 461.52 112.76"><defs><style>.cls-1{fill:#fff;}</style></defs><title>medcurso-negativo</title><g id="Camada_2" data-name="Camada 2"><g id="Camada_1-2" data-name="Camada 1"><path class="cls-1" d="M47.41,42.9h6.75V11.45H47.41Zm0,69.86h6.76V69.86H47.4Zm11.27-11.45h6.75V69.86H58.67ZM47.4,54.14h6.76V47.4H47.4Zm-11.25-18H11.38V42.9H42.9V0H36.15ZM47.4,65.37h6.76V58.63H47.4Zm54.05-18H69.92v6.74h31.53ZM65.42,0H58.67V42.9h6.75ZM58.67,65.37h6.76V58.63H58.67ZM0,76.6H36.15v24.71H42.9V69.86H0ZM11.38,65.37H42.9V58.63H11.38Zm31.52-18H0v6.75H42.9ZM292.79,68.6A21.66,21.66,0,0,1,283.57,71c-8.91,0-13.25-5.86-13.25-14.65,0-9.47,5.25-14.66,12.33-14.66,3.67,0,6.05,1.41,8.73,4l4.16,4.09,4.33-2.74c-2.75-7-8.79-11.61-16.79-11.61-10.62,0-19.48,8.73-19.48,20.83,0,12.27,8,20.88,19.24,20.88a25.33,25.33,0,0,0,17.83-8L298.1,66Zm41.52-8.49c0,4.15-.85,6.72-2.8,8.49-1.65,1.46-4.46,2.44-7.94,2.44s-6.29-1-7.94-2.44c-1.95-1.77-2.75-4.34-2.75-8.49v-24h-6.47V61c0,5.43,1.59,9.28,4.64,12,2.87,2.63,7.21,4.22,12.52,4.22s9.65-1.59,12.52-4.22c3.05-2.74,4.57-6.59,4.57-12V36.11h-6.35Zm46.11-11a12.5,12.5,0,0,0-3.36-9.1c-2.75-2.75-7-3.85-13.07-3.85H349.22V76.6h6.47V62.12h10.38c.79,0,1,.07,1.41.74l7.51,13a1.31,1.31,0,0,0,1.4.74h6.17l-9.22-15.45C377.85,59.07,380.42,54.25,380.42,49.06ZM369,56.75H355.69V41.61h9c3.6,0,6,.49,7.45,2a8,8,0,0,1,1.64,5.44,11.76,11.76,0,0,1-1.4,5.92A3.28,3.28,0,0,1,369,56.75ZM58.67,54.14h6.76V47.4H58.67Zm345.93-1.3-3.84-1.28c-4.77-1.59-7.15-2.87-7.15-5.68,0-3.48,3.06-4.64,8.73-4.64a78.94,78.94,0,0,1,9.59.8l1.95.24,1-4.33a36.15,36.15,0,0,0-12.58-2.45c-7.75,0-14.65,3.12-14.65,10.44,0,5.74,4.21,8.86,11.54,11.24l4.46,1.46c5.19,1.72,7.14,3.06,7.14,6.42,0,4.21-3.6,6.41-8.24,6.41A46.92,46.92,0,0,1,392,69.94l-3.37-.79-1.52,4a35.59,35.59,0,0,0,15.2,4c9.22,0,14.54-5.19,14.54-12.34C416.88,58.34,412.85,55.59,404.6,52.84ZM441.55,35.5h-.12c-10.57,0-20,8.31-20,20.89s9.4,20.82,20,20.82h.12c10.56,0,20-8.25,20-20.82S452.11,35.5,441.55,35.5Zm0,35.48h-.12c-8,0-13.25-5.44-13.25-14.59s5.25-14.6,13.25-14.6h.12c8,0,13.25,5.44,13.25,14.6S449.55,71,441.55,71ZM235.33,36.11H222.81V76.6h12.52c8.49,0,14.53-1.83,18.44-5.8,3.29-3.3,5.19-8.19,5.19-14.47s-1.9-11.18-5.19-14.48C249.86,37.88,243.82,36.11,235.33,36.11ZM248.4,67.56C245.59,70.12,241.31,71,235,71h-5.74V41.67H235c6.29,0,10.57.86,13.38,3.42,2.5,2.32,3.9,6,3.9,11.24S250.9,65.24,248.4,67.56ZM69.92,112.76h6.76V76.6h24.77V69.86H69.92Zm123.52-54.3h18.74V53H193.44V41.55h20.94V36.11H187V76.6h28.08V71.16H193.44ZM69.92,65.38h42.91V58.62H69.92Zm6.76-53.93H69.92V42.9h42.91V36.16H76.68Zm95.08,25.4-14.6,18.93L142.39,36.85a1.48,1.48,0,0,0-1.53-.74h-5.19V76.6H142V45.76h.12c.85,1.35,3.42,4.76,5.25,7l6.9,8.73a1.48,1.48,0,0,0,1.41.61h3.54l7.39-9.4c1.83-2.38,4.21-5.56,5.12-7h.07V76.6H178V36.11h-4.76A1.5,1.5,0,0,0,171.76,36.85Z"/></g></g></svg>