<svg version="1.2" xmlns="http://www.w3.org/2000/svg" xmlns:xlink="http://www.w3.org/1999/xlink" overflow="visible" preserveAspectRatio="none" viewBox="0 0 86.91999816894531 99.30000305175781" height="149" width="130"><g transform="translate(1, 1)"><g transform="translate(1, 1)"><defs><style>.cls-1_1585761383054{fill:#231f20;}</style></defs><g id="Camada_2_1585761383054"><g id="marca_PB_positivo_1585761383054"><path style="fill: rgb(255, 255, 255);" class="cls-1_1585761383054" d="M14.85,61.4l-.19.27-.28.39q-.15.22-.33.45l-.32.44-1.64,2.19h-.48a.17.17,0,0,1-.12,0L11.4,65,9.83,63c-.2-.27-.41-.54-.61-.82s-.38-.52-.52-.74v6.41H8v-7.6h.61a.24.24,0,0,1,.08.09l3.13,4.14h0l3.08-4.14a.36.36,0,0,1,.09-.09h.59v7.6h-.73Z" vector-effect="non-scaling-stroke"/><path style="fill: rgb(255, 255, 255);" class="cls-1_1585761383054" d="M28.57,67.81a.14.14,0,0,1-.11,0,.12.12,0,0,1-.05-.08l-.78-1.84h-4L22.9,67.7a.19.19,0,0,1,0,.08.17.17,0,0,1-.12,0h-.66l3.15-7.6h.62c.06,0,.1,0,.12,0a.12.12,0,0,1,.05.08l3.21,7.5ZM23.9,65.25h3.46l-.82-2L26,62.05,25.6,61h0c-.06.14-.12.31-.19.5s-.15.39-.23.6l-.25.63-.23.58Z" vector-effect="non-scaling-stroke"/><path style="fill: rgb(255, 255, 255);" class="cls-1_1585761383054" d="M35.43,66.78l.67.18a9.51,9.51,0,0,0,.94.21,5.25,5.25,0,0,0,.82.08,3,3,0,0,0,.9-.12,1.58,1.58,0,0,0,.59-.32,1.21,1.21,0,0,0,.34-.48,1.68,1.68,0,0,0,.11-.6,1.6,1.6,0,0,0-.08-.51,1,1,0,0,0-.26-.4A1.85,1.85,0,0,0,39,64.5a5.32,5.32,0,0,0-.69-.29l-.95-.35a7,7,0,0,1-.82-.34,2.59,2.59,0,0,1-.62-.42,1.69,1.69,0,0,1-.4-.53,1.59,1.59,0,0,1-.13-.68,1.42,1.42,0,0,1,.2-.78,1.63,1.63,0,0,1,.54-.57,2.46,2.46,0,0,1,.81-.33,4,4,0,0,1,1-.12,6.16,6.16,0,0,1,1.15.12,6.85,6.85,0,0,1,1.13.32l-.11.46-.5-.07-.86-.11a7.5,7.5,0,0,0-.77,0,3.23,3.23,0,0,0-1.35.24.89.89,0,0,0-.52.87.92.92,0,0,0,.37.78,4.21,4.21,0,0,0,1.13.56l.92.33c.29.11.55.23.8.35a2.91,2.91,0,0,1,.63.43,1.91,1.91,0,0,1,.43.59,2,2,0,0,1,.15.81,2.18,2.18,0,0,1-.2,1,2,2,0,0,1-.56.69,2.53,2.53,0,0,1-.84.41,3.36,3.36,0,0,1-1,.14,5.43,5.43,0,0,1-.67,0,6.1,6.1,0,0,1-.72-.14,5.08,5.08,0,0,1-.69-.23,3.61,3.61,0,0,1-.59-.3Z" vector-effect="non-scaling-stroke"/><path style="fill: rgb(255, 255, 255);" class="cls-1_1585761383054" d="M49,60.84h-2.6v-.63h6v.63h-2.6v7H49Z" vector-effect="non-scaling-stroke"/><path style="fill: rgb(255, 255, 255);" class="cls-1_1585761383054" d="M63.53,60.21v.61H59.6v2.71h3.52v.62H59.6v3h4.07v.62H58.84v-7.6Z" vector-effect="non-scaling-stroke"/><path style="fill: rgb(255, 255, 255);" class="cls-1_1585761383054" d="M75.57,67.81a.2.2,0,0,1-.18-.11L73.84,65a.31.31,0,0,0-.08-.1.21.21,0,0,0-.13,0H71.18v2.93h-.76v-7.6h2.66a4.09,4.09,0,0,1,1.33.17,2,2,0,0,1,.84.51,2.25,2.25,0,0,1,.58,1.62,2.58,2.58,0,0,1-.36,1.38,2.22,2.22,0,0,1-1,.89l1.77,3Zm-4.39-3.53H73.8a1.38,1.38,0,0,0,.46-.06.85.85,0,0,0,.31-.22,1.7,1.7,0,0,0,.37-.66,2.73,2.73,0,0,0,.13-.8,1.76,1.76,0,0,0-.38-1.23,1.32,1.32,0,0,0-.61-.38,3.62,3.62,0,0,0-1-.11H71.18Z" vector-effect="non-scaling-stroke"/><path style="fill: rgb(255, 255, 255);" class="cls-1_1585761383054" d="M30.88,39.89a1.12,1.12,0,0,1,.33-.29,1.22,1.22,0,0,1,.46-.07h2.86v14H30.91V44.91h0l-3,3.7H25.8a1,1,0,0,1-.37,0,.58.58,0,0,1-.26-.22l-2.71-3.43h0v8.66h-3.6v-14h3.05a1.16,1.16,0,0,1,.45.07,1,1,0,0,1,.33.29L26.76,45h.06Z" vector-effect="non-scaling-stroke"/><path style="fill: rgb(255, 255, 255);" class="cls-1_1585761383054" d="M48,39.53v3.12H40.88V45h6.49v3H40.88v2.46H48.2v3.11H37.11v-14Z" vector-effect="non-scaling-stroke"/><path style="fill: rgb(255, 255, 255);" class="cls-1_1585761383054" d="M50.57,53.57v-14h5.12a13.7,13.7,0,0,1,3.83.49,6.48,6.48,0,0,1,2.78,1.61,5.86,5.86,0,0,1,1.31,2.07,8.09,8.09,0,0,1,.46,2.86,8,8,0,0,1-.46,2.85,5.82,5.82,0,0,1-1.31,2.06,6.38,6.38,0,0,1-2.78,1.61,13.34,13.34,0,0,1-3.83.49Zm5-3.24a11.3,11.3,0,0,0,2.09-.17,2.93,2.93,0,0,0,1.44-.68,2.72,2.72,0,0,0,.76-1.13,4.84,4.84,0,0,0,.28-1.79,4.93,4.93,0,0,0-.28-1.8,2.69,2.69,0,0,0-.76-1.14,3,3,0,0,0-1.44-.68,11.3,11.3,0,0,0-2.09-.17H54.34v7.56Z" vector-effect="non-scaling-stroke"/><polygon style="fill: rgb(255, 255, 255);" class="cls-1_1585761383054" points="45.36 87.14 50.08 87.15 50.08 85.77 43.98 85.76 43.97 91.85 45.35 91.86 45.36 87.14" vector-effect="non-scaling-stroke"/><rect style="fill: rgb(255, 255, 255);" class="cls-1_1585761383054" x="41.84" y="81.47" width="1.38" height="1.38" transform="translate(-39.7 124.54) rotate(-89.9)" vector-effect="non-scaling-stroke"/><rect style="fill: rgb(255, 255, 255);" class="cls-1_1585761383054" x="37.33" y="88.11" width="6.1" height="1.38" transform="translate(-48.49 129.02) rotate(-89.9)" vector-effect="non-scaling-stroke"/><rect style="fill: rgb(255, 255, 255);" class="cls-1_1585761383054" x="41.84" y="83.61" width="1.38" height="1.38" transform="translate(-41.85 126.68) rotate(-89.9)" vector-effect="non-scaling-stroke"/><rect style="fill: rgb(255, 255, 255);" class="cls-1_1585761383054" x="46.34" y="81.26" width="1.38" height="6.1" transform="translate(-37.36 131.19) rotate(-89.9)" vector-effect="non-scaling-stroke"/><rect style="fill: rgb(255, 255, 255);" class="cls-1_1585761383054" x="46.35" y="79.12" width="1.38" height="6.1" transform="translate(-35.21 129.05) rotate(-89.9)" vector-effect="non-scaling-stroke"/><rect style="fill: rgb(255, 255, 255);" class="cls-1_1585761383054" x="39.47" y="88.11" width="6.1" height="1.38" transform="matrix(0, -1, 1, 0, -46.36, 131.17)" vector-effect="non-scaling-stroke"/><rect style="fill: rgb(255, 255, 255);" class="cls-1_1585761383054" x="35.2" y="79.1" width="1.38" height="6.1" transform="translate(-46.32 117.89) rotate(-89.9)" vector-effect="non-scaling-stroke"/><polygon style="fill: rgb(255, 255, 255);" class="cls-1_1585761383054" points="37.54 91.84 38.92 91.84 38.93 85.75 32.83 85.74 32.83 87.12 37.55 87.13 37.54 91.84" vector-effect="non-scaling-stroke"/><rect style="fill: rgb(255, 255, 255);" class="cls-1_1585761383054" x="35.19" y="81.24" width="1.38" height="6.1" transform="translate(-48.47 120.02) rotate(-89.9)" vector-effect="non-scaling-stroke"/><rect style="fill: rgb(255, 255, 255);" class="cls-1_1585761383054" x="39.69" y="83.61" width="1.38" height="1.38" transform="translate(-43.98 124.53) rotate(-89.9)" vector-effect="non-scaling-stroke"/><rect style="fill: rgb(255, 255, 255);" class="cls-1_1585761383054" x="39.7" y="81.46" width="1.38" height="1.38" transform="translate(-41.84 122.4) rotate(-89.9)" vector-effect="non-scaling-stroke"/><path style="fill: rgb(255, 255, 255);" class="cls-1_1585761383054" d="M29.42,83.92a12,12,0,1,0,0-1.38h0v1.38Zm1.37-.69a10.67,10.67,0,1,1,3.11,7.55,10.57,10.57,0,0,1-3.11-7.55" vector-effect="non-scaling-stroke"/><rect style="fill: rgb(255, 255, 255);" class="cls-1_1585761383054" x="39.49" y="76.96" width="6.1" height="1.38" transform="translate(-35.19 120.06) rotate(-89.9)" vector-effect="non-scaling-stroke"/><polygon style="fill: rgb(255, 255, 255);" class="cls-1_1585761383054" points="50.09 79.34 45.37 79.33 45.38 74.61 44 74.61 43.99 80.71 50.09 80.72 50.09 79.34" vector-effect="non-scaling-stroke"/><rect style="fill: rgb(255, 255, 255);" class="cls-1_1585761383054" x="37.35" y="76.96" width="6.1" height="1.38" transform="translate(-37.32 117.91) rotate(-89.9)" vector-effect="non-scaling-stroke"/><polygon style="fill: rgb(255, 255, 255);" class="cls-1_1585761383054" points="38.95 74.6 37.57 74.6 37.56 79.31 32.84 79.31 32.84 80.69 38.94 80.7 38.95 74.6" vector-effect="non-scaling-stroke"/><path style="fill: rgb(255, 255, 255);" class="cls-1_1585761383054" d="M55.39,11.5,54.08,9.33,51.9,10.64l1.32,2.18ZM42.13,1.79,40.33,0l-1.8,1.8,1.8,1.79ZM28.89,10.64,26.72,9.33,25.4,11.5l2.18,1.32ZM72,12.5l-2.45.68.68,2.45L72.66,15ZM8.14,15l2.45.68.67-2.45L8.81,12.5Zm44.46-.24L45.94,25.33,40.33,5.63l-5.61,19.7L28.07,14.71,22.75,26.39l-11.3-9.58,8,20.14,3.78-8.32,9.65,8.18,2.31-8.1,5.12,8.18,5.13-8.18,2.3,8.1,9.65-8.18L61.19,37l8-20.14L57.91,26.39Zm-33,18.7L14.8,21.47l7.35,6.23Zm12.61.94-8.31-7,4.41-9.69,5.95,9.5Zm8.17-.08-4.61-7.35L40.33,10.7l4.61,16.22Zm8.17.08-2-7.22,5.95-9.5,4.41,9.69ZM65.86,21.47,61.11,33.41l-2.6-5.71Z" vector-effect="non-scaling-stroke"/><polygon style="fill: rgb(255, 255, 255);" class="cls-1_1585761383054" points="81.12 58.77 82.92 56.97 81.12 55.17 79.51 56.78 3.41 56.78 1.79 55.17 0 56.98 1.8 58.77 3.4 57.16 79.51 57.16 81.12 58.77" vector-effect="non-scaling-stroke"/></g></g></g></g></svg>