<svg id="Capa_1" enable-background="new 0 0 512 512" height="512" viewBox="0 0 512 512" width="512" xmlns="http://www.w3.org/2000/svg"><g><path d="m226 91h-120c-8.284 0-15 6.716-15 15v120c0 8.284 6.716 15 15 15h120c8.284 0 15-6.716 15-15v-120c0-8.284-6.716-15-15-15zm-15 120h-90v-90h90z"/><circle cx="166" cy="166" r="15"/><path d="m15 120c8.284 0 15-6.716 15-15v-75h75c8.284 0 15-6.716 15-15s-6.716-15-15-15h-90c-8.284 0-15 6.716-15 15v90c0 8.284 6.716 15 15 15z"/><path d="m497 0h-90c-8.284 0-15 6.716-15 15s6.716 15 15 15h75v75c0 8.284 6.716 15 15 15s15-6.716 15-15v-90c0-8.284-6.716-15-15-15z"/><path d="m105 482h-75v-75c0-8.284-6.716-15-15-15s-15 6.716-15 15v90c0 8.284 6.716 15 15 15h90c8.284 0 15-6.716 15-15s-6.716-15-15-15z"/><path d="m497 392c-8.284 0-15 6.716-15 15v75h-75c-8.284 0-15 6.716-15 15s6.716 15 15 15h90c8.284 0 15-6.716 15-15v-90c0-8.284-6.716-15-15-15z"/><path d="m286 241h120c8.284 0 15-6.716 15-15v-120c0-8.284-6.716-15-15-15h-120c-8.284 0-15 6.716-15 15v120c0 8.284 6.716 15 15 15zm15-120h90v90h-90z"/><path d="m226 271h-120c-8.284 0-15 6.716-15 15v120c0 8.284 6.716 15 15 15h120c8.284 0 15-6.716 15-15v-120c0-8.284-6.716-15-15-15zm-15 120h-90v-90h90z"/><path d="m286 301h105v25c0 8.284 6.716 15 15 15s15-6.716 15-15v-40c0-8.284-6.716-15-15-15h-120c-8.284 0-15 6.716-15 15s6.716 15 15 15z"/><circle cx="166" cy="346" r="15"/><path d="m346 331h-60c-8.284 0-15 6.716-15 15v60c0 8.284 6.716 15 15 15h60c8.284 0 15-6.716 15-15v-60c0-8.284-6.716-15-15-15zm-15 60h-30v-30h30z"/><circle cx="346" cy="166" r="15"/><path d="m406 421c8.284 0 15-6.716 15-15v-20c0-8.284-6.716-15-15-15s-15 6.716-15 15v20c0 8.284 6.716 15 15 15z"/></g></svg>