<svg version="1.2" xmlns="http://www.w3.org/2000/svg" xmlns:xlink="http://www.w3.org/1999/xlink" overflow="visible" preserveAspectRatio="none" viewBox="0 0 177.3800048828125 109.18000030517578" height="52" width="85"><g transform="translate(1, 1)"><g transform="translate(1, 1)"><defs><style>.cls-1_1585761383052{fill:#fff;}</style></defs><g id="Camada_2_1585761383052"><g id="Camada_1-2_1585761383052"><path class="cls-1_1585761383052" d="M151.61,50.49,154,26.06H131.7L129,49.29H104.88L103.21,61.5h4.86v5.8h-5.66l-.71,5.22h24.69L123.47,97h22l2.66-24.43h25.22v-22ZM115.1,61.9h-6.37V55.53h6.37Z" vector-effect="non-scaling-stroke"/><polygon class="cls-1_1585761383052" points="90.45 71.99 105.68 105.18 78.6 105.18 62.94 72.04 69.97 72.06 69.97 66.68 81.12 66.68 81.09 72.02 90.45 71.99" vector-effect="non-scaling-stroke"/><polygon class="cls-1_1585761383052" points="44 61.5 37.78 61.5 37.58 66.68 31.79 66.68 31.79 72.52 21.7 72.52 21.7 67.01 16.03 67.01 12.32 105.18 39.91 105.18 44 61.5" vector-effect="non-scaling-stroke"/><rect class="cls-1_1585761383052" y="67.15" width="5.72" height="5.72" vector-effect="non-scaling-stroke"/><rect class="cls-1_1585761383052" x="23.11" y="56.1" width="5.79" height="5.79" vector-effect="non-scaling-stroke"/><rect class="cls-1_1585761383052" x="43.67" y="56.02" width="5.82" height="5.82" vector-effect="non-scaling-stroke"/><rect class="cls-1_1585761383052" x="54.24" y="61.28" width="6.08" height="6.08" vector-effect="non-scaling-stroke"/><rect class="cls-1_1585761383052" x="58.76" y="66.97" width="6.07" height="6.07" vector-effect="non-scaling-stroke"/><rect class="cls-1_1585761383052" x="65.38" y="61.53" width="5.59" height="5.59" vector-effect="non-scaling-stroke"/><rect class="cls-1_1585761383052" x="87.15" y="61.53" width="5.59" height="5.59" vector-effect="non-scaling-stroke"/><rect class="cls-1_1585761383052" x="91.1" y="67.28" width="5.46" height="5.46" vector-effect="non-scaling-stroke"/><rect class="cls-1_1585761383052" x="97.8" y="61.63" width="5.39" height="5.39" vector-effect="non-scaling-stroke"/><rect class="cls-1_1585761383052" x="71.5" y="50.11" width="6.66" height="6.66" vector-effect="non-scaling-stroke"/><rect class="cls-1_1585761383052" x="76.38" y="56.45" width="10.76" height="5.08" vector-effect="non-scaling-stroke"/><path class="cls-1_1585761383052" d="M24.62,0,18.78,51.28H34v5.49h5.66v-5h5.93l2.66-28.68,24.69.18s8.58-1.33,8,12.3S72,49.6,72,49.6l-.46-.09v2l21.77.18V57l10.59-.27s5.18-12.66,4.87-25S100.9,1,78.16.49,24.62,0,24.62,0Z" vector-effect="non-scaling-stroke"/></g></g></g></g></svg>