<svg xmlns="http://www.w3.org/2000/svg" viewBox="0 0 3410 3185"><defs><style>.cls-1{opacity:0.6;}.cls-2{fill:#fff;}</style></defs><title>Ativo 1</title><g id="Camada_2" data-name="Camada 2"><g id="Camada_1-2" data-name="Camada 1"><g class="cls-1"><path d="M.5,3184.5V.5h3409v3184ZM1739,1555a70,70,0,1,0,70,70A70.08,70.08,0,0,0,1739,1555Z"/><path class="cls-2" d="M3409,1V3184H1V1H3409M1739,1695.5a70.5,70.5,0,1,0-70.5-70.5,70.58,70.58,0,0,0,70.5,70.5M3410,0H0V3185H3410V0ZM1739,1694.5a69.5,69.5,0,1,1,69.5-69.5,69.5,69.5,0,0,1-69.5,69.5Z"/></g></g></g></svg>