<svg id="Camada_1" data-name="Camada 1" xmlns="http://www.w3.org/2000/svg" viewBox="0 0 37 21"><defs><style>.cls-1{fill:#fff;}</style></defs><title>texto-img</title><rect class="cls-1" x="26.5" y="0.5" width="10" height="20" rx="1.72" ry="1.72"/><path d="M34.66.94a1.22,1.22,0,0,1,1.22,1.22V18.72a1.22,1.22,0,0,1-1.22,1.22H28.09a1.22,1.22,0,0,1-1.21-1.22V2.16A1.21,1.21,0,0,1,28.09.94h6.57m0-1H28.09a2.21,2.21,0,0,0-2.21,2.22V18.72a2.22,2.22,0,0,0,2.21,2.22h6.57a2.23,2.23,0,0,0,2.22-2.22V2.16A2.22,2.22,0,0,0,34.66-.06Z" transform="translate(0.13 0.06)"/><rect y="3" width="21" height="1.44"/><rect y="5.89" width="21" height="1.44"/><rect y="8.78" width="15" height="1.44"/><rect y="13.67" width="21" height="1.44"/><rect y="16.56" width="15" height="1.44"/></svg>